<svg width="24" height="24" viewBox="0 0 24 24" fill="none" xmlns="http://www.w3.org/2000/svg">
<path d="M11.94 2C12.4212 2.00033 12.8951 2.11677 13.3216 2.33944C13.7482 2.5621 14.1147 2.88441 14.39 3.279L14.498 3.443L22.929 17.517C23.1816 17.955 23.319 18.4499 23.3283 18.9555C23.3376 19.461 23.2184 19.9607 22.9821 20.4077C22.7457 20.8547 22.3998 21.2344 21.9767 21.5113C21.5536 21.7882 21.0672 21.9532 20.563 21.991L20.363 22H3.507C3.00219 21.994 2.50713 21.8602 2.06796 21.6112C1.6288 21.3622 1.25983 21.006 0.995465 20.5759C0.731098 20.1458 0.579938 19.6558 0.556076 19.1515C0.532215 18.6473 0.636429 18.1451 0.859004 17.692L0.960004 17.503L9.385 3.438C9.65148 2.99901 10.0266 2.63609 10.4741 2.38421C10.9216 2.13234 11.4265 2.00002 11.94 2ZM12.01 16L11.883 16.007C11.64 16.0359 11.4159 16.153 11.2534 16.336C11.0909 16.519 11.0011 16.7552 11.0011 17C11.0011 17.2448 11.0909 17.481 11.2534 17.664C11.4159 17.847 11.64 17.9641 11.883 17.993L12 18L12.127 17.993C12.3701 17.9641 12.5941 17.847 12.7566 17.664C12.9191 17.481 13.0089 17.2448 13.0089 17C13.0089 16.7552 12.9191 16.519 12.7566 16.336C12.5941 16.153 12.3701 16.0359 12.127 16.007L12.01 16ZM12 8C11.7551 8.00003 11.5187 8.08996 11.3356 8.25272C11.1526 8.41547 11.0357 8.63975 11.007 8.883L11 9V13L11.007 13.117C11.0359 13.36 11.153 13.5841 11.336 13.7466C11.519 13.9091 11.7552 13.9989 12 13.9989C12.2448 13.9989 12.481 13.9091 12.664 13.7466C12.847 13.5841 12.9641 13.36 12.993 13.117L13 13V9L12.993 8.883C12.9643 8.63975 12.8474 8.41547 12.6644 8.25272C12.4813 8.08996 12.2449 8.00003 12 8Z" fill="#F79009"/>
</svg>
