<svg width="24" height="24" viewBox="0 0 24 24" fill="none" xmlns="http://www.w3.org/2000/svg">
<g id="alert-circle-filled">
<path id="Vector" d="M12 22C6.477 22 2 17.523 2 12C1.99792 9.37453 3.02845 6.85355 4.8691 4.98136C6.70975 3.10916 9.21285 2.03594 11.838 1.9934C14.4631 1.95086 16.9997 2.94242 18.9 4.754C20.8003 6.56558 21.912 9.05184 21.995 11.676L22 12L21.996 12.28C21.848 17.673 17.43 22 12 22ZM11.99 9L12.117 8.993C12.36 8.96409 12.5841 8.84704 12.7466 8.66403C12.9091 8.48103 12.9989 8.24476 12.9989 8C12.9989 7.75524 12.9091 7.51897 12.7466 7.33596C12.5841 7.15296 12.36 7.03591 12.117 7.007L12 7L11.873 7.007C11.63 7.03591 11.4059 7.15296 11.2434 7.33596C11.0809 7.51897 10.9911 7.75524 10.9911 8C10.9911 8.24476 11.0809 8.48103 11.2434 8.66403C11.4059 8.84704 11.63 8.96409 11.873 8.993L11.99 9ZM12 17C12.2449 17 12.4813 16.91 12.6644 16.7473C12.8474 16.5845 12.9643 16.3603 12.993 16.117L13 16L13 12L12.993 11.883C12.9641 11.64 12.847 11.4159 12.664 11.2534C12.481 11.0909 12.2448 11.0011 12 11.0011C11.7552 11.0011 11.519 11.0909 11.336 11.2534C11.153 11.4159 11.0359 11.64 11.007 11.883L11 12L11 16L11.007 16.117C11.0357 16.3603 11.1526 16.5845 11.3356 16.7473C11.5187 16.91 11.7551 17 12 17Z" fill="#2E90FA"/>
</g>
</svg>
