<svg width="21" height="21" viewBox="0 0 21 21" fill="none" xmlns="http://www.w3.org/2000/svg">
<g id="alert-octagon-filled">
<path id="Vector" d="M12.9141 1.33398C13.733 1.33394 14.5232 1.63532 15.1341 2.18065L15.2716 2.31065L18.6883 5.72732C19.2687 6.30657 19.6152 7.07945 19.6616 7.89815L19.6666 8.08732V12.9157C19.6666 13.7345 19.3652 14.5248 18.8199 15.1357L18.6899 15.2732L15.2733 18.6898C14.6944 19.2699 13.9222 19.6164 13.1041 19.6632L12.9149 19.6681H8.08575C7.26675 19.668 6.47647 19.3663 5.86575 18.8207L5.72825 18.6906L2.31159 15.274C1.73135 14.6949 1.38484 13.9224 1.33825 13.104L1.33325 12.9148V8.08648C1.33321 7.26761 1.63459 6.47737 2.17992 5.86648L2.30992 5.72898L5.72659 2.31232C6.30584 1.7319 7.07872 1.38537 7.89742 1.33898L8.08659 1.33398H12.9141ZM10.5083 13.0007L10.4024 13.0065C10.1999 13.0306 10.0132 13.1281 9.87776 13.2806C9.74232 13.4331 9.66751 13.63 9.66751 13.834C9.66751 14.038 9.74232 14.2348 9.87776 14.3873C10.0132 14.5399 10.1999 14.6374 10.4024 14.6615L10.4999 14.6673L10.6058 14.6615C10.8083 14.6374 10.995 14.5399 11.1304 14.3873C11.2659 14.2348 11.3407 14.038 11.3407 13.834C11.3407 13.63 11.2659 13.4331 11.1304 13.2806C10.995 13.1281 10.8083 13.0306 10.6058 13.0065L10.5083 13.0007ZM10.4999 6.33398C10.2958 6.33401 10.0988 6.40895 9.94628 6.54458C9.79375 6.68021 9.6963 6.86711 9.67242 7.06982L9.66659 7.16732V10.5007L9.67242 10.5982C9.69651 10.8007 9.79405 10.9874 9.94656 11.1228C10.0991 11.2582 10.2959 11.3331 10.4999 11.3331C10.7039 11.3331 10.9008 11.2582 11.0533 11.1228C11.2058 10.9874 11.3033 10.8007 11.3274 10.5982L11.3333 10.5007V7.16732L11.3274 7.06982C11.3035 6.86711 11.2061 6.68021 11.0536 6.54458C10.901 6.40895 10.704 6.33401 10.4999 6.33398Z" fill="#F04438"/>
</g>
</svg>
