<svg width="18" height="24" viewBox="0 0 18 24" fill="none" xmlns="http://www.w3.org/2000/svg">
<g id="Group 427320710">
<g id="Rectangle 392">
<path d="M0 0.75C0 0.335787 0.335787 0 0.75 0H10.5C14.6421 0 18 3.35786 18 7.5C18 11.6421 14.6421 15 10.5 15H0.75C0.335787 15 0 14.6642 0 14.25V0.75Z" fill="white"/>
<path d="M0 0.75C0 0.335787 0.335787 0 0.75 0H10.5C14.6421 0 18 3.35786 18 7.5C18 11.6421 14.6421 15 10.5 15H0.75C0.335787 15 0 14.6642 0 14.25V0.75Z" fill="#0047CB" fill-opacity="0.15"/>
</g>
<g id="Rectangle 393">
<path d="M0 9.75C0 9.33579 0.335787 9 0.75 9H10.5C14.6421 9 18 12.3579 18 16.5C18 20.6421 14.6421 24 10.5 24H0.75C0.335787 24 0 23.6642 0 23.25V9.75Z" fill="white"/>
<path d="M0 9.75C0 9.33579 0.335787 9 0.75 9H10.5C14.6421 9 18 12.3579 18 16.5C18 20.6421 14.6421 24 10.5 24H0.75C0.335787 24 0 23.6642 0 23.25V9.75Z" fill="#0047CB" fill-opacity="0.15"/>
</g>
<path id="Intersect" fill-rule="evenodd" clip-rule="evenodd" d="M0 9V14.9998H10.5C12.9537 14.9998 15.1322 13.8215 16.5005 11.9999C15.1322 10.1783 12.9537 9 10.5 9H0Z" fill="#0047CB"/>
</g>
</svg>
