<svg width="16" height="16" viewBox="0 0 16 16" fill="none" xmlns="http://www.w3.org/2000/svg">
<g id="Component 15/Variant8">
<mask id="mask0_5442_19302" style="mask-type:alpha" maskUnits="userSpaceOnUse" x="0" y="0" width="16" height="16">
<rect id="Bounding box" width="16" height="16" fill="#D9D9D9"/>
</mask>
<g mask="url(#mask0_5442_19302)">
<path id="content_copy" d="M5.91699 12C5.57324 12 5.27896 11.8776 5.03418 11.6328C4.78939 11.388 4.66699 11.0938 4.66699 10.75V2.75C4.66699 2.40624 4.78939 2.11197 5.03418 1.86718C5.27896 1.62239 5.57324 1.5 5.91699 1.5H11.917C12.2607 1.5 12.555 1.62239 12.7998 1.86718C13.0446 2.11197 13.167 2.40624 13.167 2.75V10.75C13.167 11.0938 13.0446 11.388 12.7998 11.6328C12.555 11.8776 12.2607 12 11.917 12H5.91699ZM3.41699 14.5C3.07324 14.5 2.77896 14.3776 2.53418 14.1328C2.28939 13.888 2.16699 13.5938 2.16699 13.25V4H3.41699V13.25H10.667V14.5H3.41699Z" fill="#0047CB"/>
</g>
</g>
</svg>
