<svg width="16" height="16" viewBox="0 0 16 16" fill="none" xmlns="http://www.w3.org/2000/svg">
<g id="Component 15/content_copy">
<mask id="mask0_4150_21349" style="mask-type:alpha" maskUnits="userSpaceOnUse" x="0" y="0" width="16" height="16">
<rect id="Bounding box" width="16" height="16" fill="#D9D9D9"/>
</mask>
<g mask="url(#mask0_4150_21349)">
<path id="content_copy" d="M5.91663 12C5.57287 12 5.2786 11.8776 5.03381 11.6328C4.78902 11.388 4.66663 11.0938 4.66663 10.75V2.75C4.66663 2.40624 4.78902 2.11197 5.03381 1.86718C5.2786 1.62239 5.57287 1.5 5.91663 1.5H11.9166C12.2604 1.5 12.5547 1.62239 12.7994 1.86718C13.0442 2.11197 13.1666 2.40624 13.1666 2.75V10.75C13.1666 11.0938 13.0442 11.388 12.7994 11.6328C12.5547 11.8776 12.2604 12 11.9166 12H5.91663ZM5.91663 10.75H11.9166V2.75H5.91663V10.75ZM3.41663 14.5C3.07287 14.5 2.7786 14.3776 2.53381 14.1328C2.28902 13.888 2.16663 13.5938 2.16663 13.25V4H3.41663V13.25H10.6666V14.5H3.41663Z" fill="#4E5971"/>
</g>
</g>
</svg>
