<svg width="21" height="20" viewBox="0 0 21 20" fill="none" xmlns="http://www.w3.org/2000/svg">
<g id="dots-vertical">
<g id="Vector">
<path d="M9.6665 9.99967C9.6665 10.2207 9.7543 10.4326 9.91058 10.5889C10.0669 10.7452 10.2788 10.833 10.4998 10.833C10.7209 10.833 10.9328 10.7452 11.0891 10.5889C11.2454 10.4326 11.3332 10.2207 11.3332 9.99967C11.3332 9.77866 11.2454 9.5667 11.0891 9.41042C10.9328 9.25414 10.7209 9.16634 10.4998 9.16634C10.2788 9.16634 10.0669 9.25414 9.91058 9.41042C9.7543 9.5667 9.6665 9.77866 9.6665 9.99967Z" stroke="#4E5971" stroke-width="1.2" stroke-linecap="round" stroke-linejoin="round"/>
<path d="M9.6665 15.833C9.6665 16.054 9.7543 16.266 9.91058 16.4223C10.0669 16.5785 10.2788 16.6663 10.4998 16.6663C10.7209 16.6663 10.9328 16.5785 11.0891 16.4223C11.2454 16.266 11.3332 16.054 11.3332 15.833C11.3332 15.612 11.2454 15.4 11.0891 15.2438C10.9328 15.0875 10.7209 14.9997 10.4998 14.9997C10.2788 14.9997 10.0669 15.0875 9.91058 15.2438C9.7543 15.4 9.6665 15.612 9.6665 15.833Z" stroke="#4E5971" stroke-width="1.2" stroke-linecap="round" stroke-linejoin="round"/>
<path d="M9.6665 4.16634C9.6665 4.38735 9.7543 4.59932 9.91058 4.7556C10.0669 4.91188 10.2788 4.99967 10.4998 4.99967C10.7209 4.99967 10.9328 4.91188 11.0891 4.7556C11.2454 4.59932 11.3332 4.38735 11.3332 4.16634C11.3332 3.94533 11.2454 3.73337 11.0891 3.57709C10.9328 3.42081 10.7209 3.33301 10.4998 3.33301C10.2788 3.33301 10.0669 3.42081 9.91058 3.57709C9.7543 3.73337 9.6665 3.94533 9.6665 4.16634Z" stroke="#4E5971" stroke-width="1.2" stroke-linecap="round" stroke-linejoin="round"/>
</g>
</g>
</svg>
