<svg width="16" height="16" viewBox="0 0 16 16" fill="none" xmlns="http://www.w3.org/2000/svg">
<g id="grip-vertical">
<g id="Vector">
<path d="M5.3335 3.33268C5.3335 3.50949 5.40373 3.67906 5.52876 3.80409C5.65378 3.92911 5.82335 3.99935 6.00016 3.99935C6.17697 3.99935 6.34654 3.92911 6.47157 3.80409C6.59659 3.67906 6.66683 3.50949 6.66683 3.33268C6.66683 3.15587 6.59659 2.9863 6.47157 2.86128C6.34654 2.73625 6.17697 2.66602 6.00016 2.66602C5.82335 2.66602 5.65378 2.73625 5.52876 2.86128C5.40373 2.9863 5.3335 3.15587 5.3335 3.33268Z" stroke="#4E5971" stroke-linecap="round" stroke-linejoin="round"/>
<path d="M5.3335 7.99935C5.3335 8.17616 5.40373 8.34573 5.52876 8.47075C5.65378 8.59578 5.82335 8.66602 6.00016 8.66602C6.17697 8.66602 6.34654 8.59578 6.47157 8.47075C6.59659 8.34573 6.66683 8.17616 6.66683 7.99935C6.66683 7.82254 6.59659 7.65297 6.47157 7.52794C6.34654 7.40292 6.17697 7.33268 6.00016 7.33268C5.82335 7.33268 5.65378 7.40292 5.52876 7.52794C5.40373 7.65297 5.3335 7.82254 5.3335 7.99935Z" stroke="#4E5971" stroke-linecap="round" stroke-linejoin="round"/>
<path d="M5.3335 12.666C5.3335 12.8428 5.40373 13.0124 5.52876 13.1374C5.65378 13.2624 5.82335 13.3327 6.00016 13.3327C6.17697 13.3327 6.34654 13.2624 6.47157 13.1374C6.59659 13.0124 6.66683 12.8428 6.66683 12.666C6.66683 12.4892 6.59659 12.3196 6.47157 12.1946C6.34654 12.0696 6.17697 11.9993 6.00016 11.9993C5.82335 11.9993 5.65378 12.0696 5.52876 12.1946C5.40373 12.3196 5.3335 12.4892 5.3335 12.666Z" stroke="#4E5971" stroke-linecap="round" stroke-linejoin="round"/>
<path d="M9.3335 3.33268C9.3335 3.50949 9.40373 3.67906 9.52876 3.80409C9.65378 3.92911 9.82335 3.99935 10.0002 3.99935C10.177 3.99935 10.3465 3.92911 10.4716 3.80409C10.5966 3.67906 10.6668 3.50949 10.6668 3.33268C10.6668 3.15587 10.5966 2.9863 10.4716 2.86128C10.3465 2.73625 10.177 2.66602 10.0002 2.66602C9.82335 2.66602 9.65378 2.73625 9.52876 2.86128C9.40373 2.9863 9.3335 3.15587 9.3335 3.33268Z" stroke="#4E5971" stroke-linecap="round" stroke-linejoin="round"/>
<path d="M9.3335 7.99935C9.3335 8.17616 9.40373 8.34573 9.52876 8.47075C9.65378 8.59578 9.82335 8.66602 10.0002 8.66602C10.177 8.66602 10.3465 8.59578 10.4716 8.47075C10.5966 8.34573 10.6668 8.17616 10.6668 7.99935C10.6668 7.82254 10.5966 7.65297 10.4716 7.52794C10.3465 7.40292 10.177 7.33268 10.0002 7.33268C9.82335 7.33268 9.65378 7.40292 9.52876 7.52794C9.40373 7.65297 9.3335 7.82254 9.3335 7.99935Z" stroke="#4E5971" stroke-linecap="round" stroke-linejoin="round"/>
<path d="M9.3335 12.666C9.3335 12.8428 9.40373 13.0124 9.52876 13.1374C9.65378 13.2624 9.82335 13.3327 10.0002 13.3327C10.177 13.3327 10.3465 13.2624 10.4716 13.1374C10.5966 13.0124 10.6668 12.8428 10.6668 12.666C10.6668 12.4892 10.5966 12.3196 10.4716 12.1946C10.3465 12.0696 10.177 11.9993 10.0002 11.9993C9.82335 11.9993 9.65378 12.0696 9.52876 12.1946C9.40373 12.3196 9.3335 12.4892 9.3335 12.666Z" stroke="#4E5971" stroke-linecap="round" stroke-linejoin="round"/>
</g>
</g>
</svg>
