<svg width="16" height="16" viewBox="0 0 16 16" fill="none" xmlns="http://www.w3.org/2000/svg">
<g id="Component 15/ios_share">
<mask id="mask0_5442_19304" style="mask-type:alpha" maskUnits="userSpaceOnUse" x="0" y="0" width="16" height="16">
<rect id="Bounding box" width="16" height="16" fill="#D9D9D9"/>
</mask>
<g mask="url(#mask0_5442_19304)">
<path id="ios_share" d="M4.00033 15.3337C3.63366 15.3337 3.31977 15.2031 3.05866 14.942C2.79755 14.6809 2.66699 14.367 2.66699 14.0003V6.66699C2.66699 6.30033 2.79755 5.98644 3.05866 5.72533C3.31977 5.46421 3.63366 5.33366 4.00033 5.33366H6.00033V6.66699H4.00033V14.0003H12.0003V6.66699H10.0003V5.33366H12.0003C12.367 5.33366 12.6809 5.46421 12.942 5.72533C13.2031 5.98644 13.3337 6.30033 13.3337 6.66699V14.0003C13.3337 14.367 13.2031 14.6809 12.942 14.942C12.6809 15.2031 12.367 15.3337 12.0003 15.3337H4.00033ZM7.33366 10.667V3.21699L6.26699 4.28366L5.33366 3.33366L8.00033 0.666992L10.667 3.33366L9.73366 4.28366L8.66699 3.21699V10.667H7.33366Z" fill="#0047CB"/>
</g>
</g>
</svg>
