<svg width="20" height="20" viewBox="0 0 20 20" fill="none" xmlns="http://www.w3.org/2000/svg">
<g id="Component 15/ios_share">
<mask id="mask0_3509_108041" style="mask-type:alpha" maskUnits="userSpaceOnUse" x="0" y="0" width="20" height="20">
<rect id="Bounding box" width="20" height="20" fill="#D9D9D9"/>
</mask>
<g mask="url(#mask0_3509_108041)">
<path id="ios_share" d="M4.99967 19.1654C4.54134 19.1654 4.14898 19.0022 3.82259 18.6758C3.4962 18.3494 3.33301 17.957 3.33301 17.4987V8.33203C3.33301 7.8737 3.4962 7.48134 3.82259 7.15495C4.14898 6.82856 4.54134 6.66536 4.99967 6.66536H7.49967V8.33203H4.99967V17.4987H14.9997V8.33203H12.4997V6.66536H14.9997C15.458 6.66536 15.8504 6.82856 16.1768 7.15495C16.5031 7.48134 16.6663 7.8737 16.6663 8.33203V17.4987C16.6663 17.957 16.5031 18.3494 16.1768 18.6758C15.8504 19.0022 15.458 19.1654 14.9997 19.1654H4.99967ZM9.16634 13.332V4.01953L7.83301 5.35286L6.66634 4.16536L9.99967 0.832031L13.333 4.16536L12.1663 5.35286L10.833 4.01953V13.332H9.16634Z" fill="#4E5971"/>
</g>
</g>
</svg>
