<svg width="28" height="28" viewBox="0 0 28 28" fill="none" xmlns="http://www.w3.org/2000/svg">
<rect x="0.5" y="0.5" width="27" height="27" rx="13.5" fill="white"/>
<rect x="0.5" y="0.5" width="27" height="27" rx="13.5" stroke="#E4E7EC"/>
<path d="M9 21.5V19.8333C9 18.9493 9.35119 18.1014 9.97631 17.4763C10.6014 16.8512 11.4493 16.5 12.3333 16.5H15.6667C16.5507 16.5 17.3986 16.8512 18.0237 17.4763C18.6488 18.1014 19 18.9493 19 19.8333V21.5M10.6667 9.83333C10.6667 10.7174 11.0179 11.5652 11.643 12.1904C12.2681 12.8155 13.1159 13.1667 14 13.1667C14.8841 13.1667 15.7319 12.8155 16.357 12.1904C16.9821 11.5652 17.3333 10.7174 17.3333 9.83333C17.3333 8.94928 16.9821 8.10143 16.357 7.47631C15.7319 6.85119 14.8841 6.5 14 6.5C13.1159 6.5 12.2681 6.85119 11.643 7.47631C11.0179 8.10143 10.6667 8.94928 10.6667 9.83333Z" stroke="#101828" stroke-width="1.2" stroke-linecap="round" stroke-linejoin="round"/>
</svg>
