<svg width="24" height="24" viewBox="0 0 24 24" fill="none" xmlns="http://www.w3.org/2000/svg">
<path d="M2.08691 9.04339H14.6087M6.95648 4.17383V16.6956M2.08691 5.56513C2.08691 5.19614 2.2335 4.84225 2.49442 4.58133C2.75534 4.32041 3.10922 4.17383 3.47822 4.17383H13.2174C13.5863 4.17383 13.9402 4.32041 14.2012 4.58133C14.4621 4.84225 14.6087 5.19614 14.6087 5.56513V15.3043C14.6087 15.6733 14.4621 16.0271 14.2012 16.2881C13.9402 16.549 13.5863 16.6956 13.2174 16.6956H3.47822C3.10922 16.6956 2.75534 16.549 2.49442 16.2881C2.2335 16.0271 2.08691 15.6733 2.08691 15.3043V5.56513Z" stroke="#001742" stroke-width="1.5" stroke-linecap="round" stroke-linejoin="round"/>
<g clip-path="url(#clip0_654_21368)">
<rect width="16.6957" height="16.6957" transform="translate(7.30493 5.21741)" fill="white"/>
<path d="M9.39185 12.1739H21.9136M14.2614 7.30432V19.8261M9.39185 8.69563C9.39185 8.32663 9.53843 7.97275 9.79935 7.71182C10.0603 7.4509 10.4142 7.30432 10.7832 7.30432H20.5223C20.8913 7.30432 21.2452 7.4509 21.5061 7.71182C21.767 7.97275 21.9136 8.32663 21.9136 8.69563V18.4348C21.9136 18.8038 21.767 19.1576 21.5061 19.4186C21.2452 19.6795 20.8913 19.8261 20.5223 19.8261H10.7832C10.4142 19.8261 10.0603 19.6795 9.79935 19.4186C9.53843 19.1576 9.39185 18.8038 9.39185 18.4348V8.69563Z" stroke="#001742" stroke-width="1.5" stroke-linecap="round" stroke-linejoin="round"/>
</g>
<defs>
<clipPath id="clip0_654_21368">
<rect width="14.6087" height="14.6087" fill="white" transform="translate(8.34839 6.26086)"/>
</clipPath>
</defs>
</svg>
