<svg width="16" height="16" viewBox="0 0 16 16" fill="none" xmlns="http://www.w3.org/2000/svg">
<g id="chart-bar">
<path id="Vector" d="M6 12.666V8.66602C6 8.4892 5.92976 8.31964 5.80474 8.19461C5.67971 8.06959 5.51014 7.99935 5.33333 7.99935H2.66667C2.48986 7.99935 2.32029 8.06959 2.19526 8.19461C2.07024 8.31964 2 8.4892 2 8.66602V12.666C2 12.8428 2.07024 13.0124 2.19526 13.1374C2.32029 13.2624 2.48986 13.3327 2.66667 13.3327M6 12.666C6 12.8428 5.92976 13.0124 5.80474 13.1374C5.67971 13.2624 5.51014 13.3327 5.33333 13.3327H2.66667M6 12.666C6 12.8428 6.07024 13.0124 6.19526 13.1374C6.32029 13.2624 6.48986 13.3327 6.66667 13.3327H9.33333C9.51014 13.3327 9.67971 13.2624 9.80474 13.1374C9.92976 13.0124 10 12.8428 10 12.666M6 12.666V5.99935C6 5.82254 6.07024 5.65297 6.19526 5.52794C6.32029 5.40292 6.48986 5.33268 6.66667 5.33268H9.33333C9.51014 5.33268 9.67971 5.40292 9.80474 5.52794C9.92976 5.65297 10 5.82254 10 5.99935V12.666M2.66667 13.3327H12M10 12.666C10 12.8428 10.0702 13.0124 10.1953 13.1374C10.3203 13.2624 10.4899 13.3327 10.6667 13.3327H13.3333C13.5101 13.3327 13.6797 13.2624 13.8047 13.1374C13.9298 13.0124 14 12.8428 14 12.666V3.33268C14 3.15587 13.9298 2.9863 13.8047 2.86128C13.6797 2.73625 13.5101 2.66602 13.3333 2.66602H10.6667C10.4899 2.66602 10.3203 2.73625 10.1953 2.86128C10.0702 2.9863 10 3.15587 10 3.33268V12.666Z" stroke="#001742" stroke-linecap="round" stroke-linejoin="round"/>
</g>
</svg>
