<svg width="28" height="28" viewBox="0 0 28 28" fill="none" xmlns="http://www.w3.org/2000/svg">
<mask id="mask0_565_62786" style="mask-type:alpha" maskUnits="userSpaceOnUse" x="4" y="4" width="20" height="20">
<rect x="4" y="4" width="20" height="20" fill="#D9D9D9"/>
</mask>
<g mask="url(#mask0_565_62786)">
<path d="M9.00016 23.1673C8.54183 23.1673 8.14947 23.0041 7.82308 22.6777C7.49669 22.3513 7.3335 21.959 7.3335 21.5007V12.334C7.3335 11.8757 7.49669 11.4833 7.82308 11.1569C8.14947 10.8305 8.54183 10.6673 9.00016 10.6673H11.5002V12.334H9.00016V21.5007H19.0002V12.334H16.5002V10.6673H19.0002C19.4585 10.6673 19.8509 10.8305 20.1772 11.1569C20.5036 11.4833 20.6668 11.8757 20.6668 12.334V21.5007C20.6668 21.959 20.5036 22.3513 20.1772 22.6777C19.8509 23.0041 19.4585 23.1673 19.0002 23.1673H9.00016ZM13.1668 17.334V8.02148L11.8335 9.35482L10.6668 8.16732L14.0002 4.83398L17.3335 8.16732L16.1668 9.35482L14.8335 8.02148V17.334H13.1668Z" fill="#101828"/>
</g>
</svg>
