<svg width="17" height="17" viewBox="0 0 17 17" fill="none" xmlns="http://www.w3.org/2000/svg">
<g id="lock">
<path id="Vector" d="M5.76202 8.32161V5.65495C5.76202 4.9477 6.04298 4.26943 6.54307 3.76933C7.04317 3.26923 7.72145 2.98828 8.42869 2.98828C9.13593 2.98828 9.81421 3.26923 10.3143 3.76933C10.8144 4.26943 11.0954 4.9477 11.0954 5.65495V8.32161M3.76202 9.65495C3.76202 9.30133 3.9025 8.96219 4.15255 8.71214C4.4026 8.46209 4.74174 8.32161 5.09536 8.32161H11.762C12.1156 8.32161 12.4548 8.46209 12.7048 8.71214C12.9549 8.96219 13.0954 9.30133 13.0954 9.65495V13.6549C13.0954 14.0086 12.9549 14.3477 12.7048 14.5978C12.4548 14.8478 12.1156 14.9883 11.762 14.9883H5.09536C4.74174 14.9883 4.4026 14.8478 4.15255 14.5978C3.9025 14.3477 3.76202 14.0086 3.76202 13.6549V9.65495ZM7.76202 11.6549C7.76202 11.8318 7.83226 12.0013 7.95729 12.1264C8.08231 12.2514 8.25188 12.3216 8.42869 12.3216C8.6055 12.3216 8.77507 12.2514 8.90009 12.1264C9.02512 12.0013 9.09536 11.8318 9.09536 11.6549C9.09536 11.4781 9.02512 11.3086 8.90009 11.1835C8.77507 11.0585 8.6055 10.9883 8.42869 10.9883C8.25188 10.9883 8.08231 11.0585 7.95729 11.1835C7.83226 11.3086 7.76202 11.4781 7.76202 11.6549Z" stroke="#001742" stroke-linecap="round" stroke-linejoin="round"/>
</g>
</svg>
