<svg width="17" height="17" viewBox="0 0 17 17" fill="none" xmlns="http://www.w3.org/2000/svg">
<g id="lock-open">
<path id="Vector" d="M5.76196 8.32031V4.98698C5.76196 4.27974 6.04291 3.60146 6.54301 3.10136C7.04311 2.60126 7.72139 2.32031 8.42863 2.32031C9.13587 2.32031 9.81415 2.60126 10.3142 3.10136C10.8143 3.60146 11.0953 4.27974 11.0953 4.98698M3.76196 9.65365C3.76196 9.30002 3.90244 8.96089 4.15249 8.71084C4.40254 8.46079 4.74167 8.32031 5.0953 8.32031H11.762C12.1156 8.32031 12.4547 8.46079 12.7048 8.71084C12.9548 8.96089 13.0953 9.30002 13.0953 9.65365V13.6536C13.0953 14.0073 12.9548 14.3464 12.7048 14.5965C12.4547 14.8465 12.1156 14.987 11.762 14.987H5.0953C4.74167 14.987 4.40254 14.8465 4.15249 14.5965C3.90244 14.3464 3.76196 14.0073 3.76196 13.6536V9.65365ZM7.76196 11.6536C7.76196 11.8305 7.8322 12 7.95722 12.1251C8.08225 12.2501 8.25182 12.3203 8.42863 12.3203C8.60544 12.3203 8.77501 12.2501 8.90003 12.1251C9.02506 12 9.0953 11.8305 9.0953 11.6536C9.0953 11.4768 9.02506 11.3073 8.90003 11.1822C8.77501 11.0572 8.60544 10.987 8.42863 10.987C8.25182 10.987 8.08225 11.0572 7.95722 11.1822C7.8322 11.3073 7.76196 11.4768 7.76196 11.6536Z" stroke="#001742" stroke-linecap="round" stroke-linejoin="round"/>
</g>
</svg>
