<svg width="16" height="16" viewBox="0 0 16 16" fill="none" xmlns="http://www.w3.org/2000/svg">
<g id="maximize">
<path id="Vector" d="M2.66675 5.33464V4.0013C2.66675 3.64768 2.80722 3.30854 3.05727 3.05849C3.30732 2.80844 3.64646 2.66797 4.00008 2.66797H5.33341M2.66675 10.668V12.0013C2.66675 12.3549 2.80722 12.6941 3.05727 12.9441C3.30732 13.1942 3.64646 13.3346 4.00008 13.3346H5.33341M10.6667 2.66797H12.0001C12.3537 2.66797 12.6928 2.80844 12.9429 3.05849C13.1929 3.30854 13.3334 3.64768 13.3334 4.0013V5.33464M10.6667 13.3346H12.0001C12.3537 13.3346 12.6928 13.1942 12.9429 12.9441C13.1929 12.6941 13.3334 12.3549 13.3334 12.0013V10.668" stroke="#001742" stroke-linecap="round" stroke-linejoin="round"/>
</g>
</svg>
