<svg width="48" height="49" viewBox="0 0 48 49" fill="none" xmlns="http://www.w3.org/2000/svg">
<rect y="0.537109" width="48" height="48" rx="8" fill="#D9E4F7" fill-opacity="0.5"/>
<path d="M32.9841 25.0723C33.0926 23.2507 32.6448 21.4391 31.7001 19.8778C30.7554 18.3166 29.3584 17.0794 27.6943 16.3303C26.0303 15.5812 24.1779 15.3557 22.3828 15.6836C20.5876 16.0115 18.9346 16.8774 17.6428 18.1664C16.3511 19.4554 15.4817 21.1066 15.15 22.901C14.8182 24.6955 15.0398 26.5484 15.7853 28.214C16.5309 29.8796 17.7651 31.2792 19.3244 32.2273C20.8836 33.1753 22.6942 33.6269 24.5161 33.5223M28 31.5374H34M31 28.5374V34.5374M24 19.5374V24.5374L27 27.5374" stroke="#0047CB" stroke-width="2" stroke-linecap="round" stroke-linejoin="round"/>
</svg>
