<svg width="48" height="49" viewBox="0 0 48 49" fill="none" xmlns="http://www.w3.org/2000/svg">
<rect y="0.537109" width="48" height="48" rx="8" fill="#D9E4F7" fill-opacity="0.5"/>
<path d="M15 15.5371V33.5371H33M33 15.5371L27 17.0371M26.113 19.1871L28.884 22.8821M28 25.0371L23 27.0371M19 27.5371C19 28.0675 19.2107 28.5762 19.5858 28.9513C19.9609 29.3264 20.4696 29.5371 21 29.5371C21.5304 29.5371 22.0391 29.3264 22.4142 28.9513C22.7893 28.5762 23 28.0675 23 27.5371C23 27.0067 22.7893 26.498 22.4142 26.1229C22.0391 25.7478 21.5304 25.5371 21 25.5371C20.4696 25.5371 19.9609 25.7478 19.5858 26.1229C19.2107 26.498 19 27.0067 19 27.5371ZM23 17.5371C23 18.0675 23.2107 18.5763 23.5858 18.9513C23.9609 19.3264 24.4696 19.5371 25 19.5371C25.5304 19.5371 26.0391 19.3264 26.4142 18.9513C26.7893 18.5763 27 18.0675 27 17.5371C27 17.0067 26.7893 16.498 26.4142 16.1229C26.0391 15.7478 25.5304 15.5371 25 15.5371C24.4696 15.5371 23.9609 15.7478 23.5858 16.1229C23.2107 16.498 23 17.0067 23 17.5371ZM28 24.5371C28 25.0675 28.2107 25.5762 28.5858 25.9513C28.9609 26.3264 29.4696 26.5371 30 26.5371C30.5304 26.5371 31.0391 26.3264 31.4142 25.9513C31.7893 25.5762 32 25.0675 32 24.5371C32 24.0067 31.7893 23.498 31.4142 23.1229C31.0391 22.7478 30.5304 22.5371 30 22.5371C29.4696 22.5371 28.9609 22.7478 28.5858 23.1229C28.2107 23.498 28 24.0067 28 24.5371Z" stroke="#0047CB" stroke-width="2" stroke-linecap="round" stroke-linejoin="round"/>
</svg>
