<svg width="436" height="192" viewBox="0 0 436 192" fill="none" xmlns="http://www.w3.org/2000/svg">
<rect x="29" width="377" height="192" rx="8" fill="white"/>
<rect x="29" width="377" height="192" rx="8" fill="url(#paint0_linear_5475_59522)"/>
<path d="M10.8621 11.7007H304.138C307.013 11.7007 309.585 12.5096 311.419 13.7814C313.257 15.055 314.299 16.7454 314.299 18.5304V56.1824C314.299 57.9674 313.257 59.6577 311.419 60.9314C309.585 62.2031 307.013 63.0121 304.138 63.0121H10.8621C7.98728 63.0121 5.41506 62.2031 3.58062 60.9314C1.74351 59.6577 0.700658 57.9674 0.700658 56.1824V18.5304C0.700658 16.7454 1.74351 15.055 3.58062 13.7814C5.41506 12.5096 7.98728 11.7007 10.8621 11.7007Z" fill="white" stroke="#EAF0FC" stroke-width="1.40132"/>
<path d="M49.7838 23H20.9401C19.102 23 17.6119 24.4901 17.6119 26.3281C17.6119 28.1662 19.102 29.6562 20.9401 29.6562H49.7838C51.6219 29.6562 53.1119 28.1662 53.1119 26.3281C53.1119 24.4901 51.6219 23 49.7838 23Z" fill="#2D72FF"/>
<path d="M69.7526 33.3555H20.9401C19.102 33.3555 17.6119 34.8455 17.6119 36.6836C17.6119 38.5217 19.102 40.0117 20.9401 40.0117H69.7526C71.5906 40.0117 73.0807 38.5217 73.0807 36.6836C73.0807 34.8455 71.5906 33.3555 69.7526 33.3555Z" fill="#2D72FF"/>
<path d="M131.862 70.4135H425.138C428.013 70.4135 430.585 71.2225 432.419 72.4943C434.257 73.7679 435.299 75.4583 435.299 77.2433V114.895C435.299 116.68 434.257 118.371 432.419 119.644C430.585 120.916 428.013 121.725 425.138 121.725H131.862C128.987 121.725 126.415 120.916 124.581 119.644C122.744 118.371 121.701 116.68 121.701 114.895V77.2433C121.701 75.4583 122.744 73.7679 124.581 72.4943C126.415 71.2225 128.987 70.4135 131.862 70.4135Z" fill="white" stroke="#EAF0FC" stroke-width="1.40132"/>
<path d="M170.172 81.7129H141.328C139.49 81.7129 138 83.2029 138 85.041C138 86.8791 139.49 88.3691 141.328 88.3691H170.172C172.01 88.3691 173.5 86.8791 173.5 85.041C173.5 83.2029 172.01 81.7129 170.172 81.7129Z" fill="#9BABC7"/>
<path d="M190.141 92.8066H141.328C139.49 92.8066 138 94.2967 138 96.1348C138 97.9728 139.49 99.4629 141.328 99.4629H190.141C191.979 99.4629 193.469 97.9728 193.469 96.1348C193.469 94.2967 191.979 92.8066 190.141 92.8066Z" fill="#E4E7EC"/>
<path d="M10.8621 128.414H304.138C307.013 128.414 309.585 129.223 311.419 130.494C313.257 131.768 314.299 133.458 314.299 135.243V172.895C314.299 174.68 313.257 176.371 311.419 177.644C309.585 178.916 307.013 179.725 304.138 179.725H10.8621C7.98728 179.725 5.41506 178.916 3.58062 177.644C1.74351 176.371 0.700658 174.68 0.700658 172.895V135.243C0.700658 133.458 1.74351 131.768 3.58062 130.494C5.41506 129.223 7.98728 128.414 10.8621 128.414Z" fill="white" stroke="#EAF0FC" stroke-width="1.40132"/>
<path d="M49.1719 139.713H20.3281C18.4901 139.713 17 141.203 17 143.041C17 144.879 18.4901 146.369 20.3281 146.369H49.1719C51.0099 146.369 52.5 144.879 52.5 143.041C52.5 141.203 51.0099 139.713 49.1719 139.713Z" fill="#9BABC7"/>
<path d="M69.1409 150.807H20.3284C18.4903 150.807 17.0002 152.297 17.0002 154.135C17.0002 155.973 18.4903 157.463 20.3284 157.463H69.1409C70.9789 157.463 72.469 155.973 72.469 154.135C72.469 152.297 70.9789 150.807 69.1409 150.807Z" fill="#E4E7EC"/>
<defs>
<linearGradient id="paint0_linear_5475_59522" x1="-144.613" y1="-69.7984" x2="78.97" y2="352.326" gradientUnits="userSpaceOnUse">
<stop stop-color="#F9FBFF"/>
<stop offset="1" stop-color="#E8EEF9"/>
</linearGradient>
</defs>
</svg>
