<svg width="16" height="17" viewBox="0 0 16 17" fill="none" xmlns="http://www.w3.org/2000/svg">
<g id="palette">
<g id="Vector">
<path d="M8 14.4648C6.4087 14.4648 4.88258 13.8327 3.75736 12.7075C2.63214 11.5823 2 10.0561 2 8.46484C2 6.87354 2.63214 5.34742 3.75736 4.2222C4.88258 3.09698 6.4087 2.46484 8 2.46484C11.3133 2.46484 14 4.85284 14 7.79818C14 8.50484 13.684 9.18351 13.1213 9.68351C12.5587 10.1835 11.7953 10.4648 11 10.4648H9.33333C9.03591 10.4601 8.74542 10.5549 8.50808 10.7342C8.27074 10.9135 8.10018 11.167 8.02354 11.4545C7.94689 11.7419 7.96856 12.0467 8.0851 12.3204C8.20164 12.594 8.40635 12.8209 8.66667 12.9648C8.79978 13.0877 8.89106 13.2491 8.92769 13.4265C8.96433 13.6039 8.94447 13.7883 8.87091 13.9538C8.79735 14.1193 8.67379 14.2576 8.51758 14.3492C8.36137 14.4409 8.18037 14.4813 8 14.4648Z" stroke="#4E5971" stroke-linecap="round" stroke-linejoin="round"/>
<path d="M5 7.46484C5 7.64165 5.07024 7.81122 5.19526 7.93625C5.32029 8.06127 5.48986 8.13151 5.66667 8.13151C5.84348 8.13151 6.01305 8.06127 6.13807 7.93625C6.2631 7.81122 6.33333 7.64165 6.33333 7.46484C6.33333 7.28803 6.2631 7.11846 6.13807 6.99344C6.01305 6.86842 5.84348 6.79818 5.66667 6.79818C5.48986 6.79818 5.32029 6.86842 5.19526 6.99344C5.07024 7.11846 5 7.28803 5 7.46484Z" stroke="#4E5971" stroke-linecap="round" stroke-linejoin="round"/>
<path d="M7.66667 5.46484C7.66667 5.64165 7.7369 5.81122 7.86193 5.93625C7.98695 6.06127 8.15652 6.13151 8.33333 6.13151C8.51014 6.13151 8.67971 6.06127 8.80474 5.93625C8.92976 5.81122 9 5.64165 9 5.46484C9 5.28803 8.92976 5.11846 8.80474 4.99344C8.67971 4.86842 8.51014 4.79818 8.33333 4.79818C8.15652 4.79818 7.98695 4.86842 7.86193 4.99344C7.7369 5.11846 7.66667 5.28803 7.66667 5.46484Z" stroke="#4E5971" stroke-linecap="round" stroke-linejoin="round"/>
<path d="M10.3333 7.46484C10.3333 7.64165 10.4036 7.81122 10.5286 7.93625C10.6536 8.06127 10.8232 8.13151 11 8.13151C11.1768 8.13151 11.3464 8.06127 11.4714 7.93625C11.5964 7.81122 11.6667 7.64165 11.6667 7.46484C11.6667 7.28803 11.5964 7.11846 11.4714 6.99344C11.3464 6.86842 11.1768 6.79818 11 6.79818C10.8232 6.79818 10.6536 6.86842 10.5286 6.99344C10.4036 7.11846 10.3333 7.28803 10.3333 7.46484Z" stroke="#4E5971" stroke-linecap="round" stroke-linejoin="round"/>
</g>
</g>
</svg>
