<svg width="20" height="20" viewBox="0 0 20 20" fill="none" xmlns="http://www.w3.org/2000/svg">
<path d="M3.75 0C3.0625 0 2.5 0.5625 2.5 1.25V18.75C2.5 19.4375 3.0625 20 3.75 20H16.25C16.9375 20 17.5 19.4375 17.5 18.75V5L12.5 0H3.75Z" fill="#E8EEF9"/>
<path d="M13.75 5H17.5L12.5 0V3.75C12.5 4.4375 13.0625 5 13.75 5Z" fill="#97ABD1"/>
<path d="M17.5 8.75L13.75 5H17.5V8.75Z" fill="#E1E8F6"/>
<g clip-path="url(#clip0_2819_59521)">
<path d="M8.625 7.5V12H9.75C10.0484 12 10.3345 11.8815 10.5455 11.6705C10.7565 11.4595 10.875 11.1734 10.875 10.875V8.625C10.875 8.32663 10.7565 8.04048 10.5455 7.82951C10.3345 7.61853 10.0484 7.5 9.75 7.5H8.625Z" stroke="#D92D20" stroke-width="0.258993" stroke-linecap="round" stroke-linejoin="round"/>
<path d="M4.6875 9.75H5.8125C6.11087 9.75 6.39702 9.63147 6.608 9.42049C6.81897 9.20952 6.9375 8.92337 6.9375 8.625C6.9375 8.32663 6.81897 8.04048 6.608 7.82951C6.39702 7.61853 6.11087 7.5 5.8125 7.5H4.6875V12" stroke="#D92D20" stroke-width="0.258993" stroke-linecap="round" stroke-linejoin="round"/>
<path d="M12.5625 9.75H14.25" stroke="#D92D20" stroke-width="0.258993" stroke-linecap="round" stroke-linejoin="round"/>
<path d="M14.8125 7.5H12.5625V12" stroke="#D92D20" stroke-width="0.258993" stroke-linecap="round" stroke-linejoin="round"/>
</g>
<defs>
<clipPath id="clip0_2819_59521">
<rect width="13.5" height="13.5" fill="white" transform="translate(3 3)"/>
</clipPath>
</defs>
</svg>
