<svg width="17" height="17" viewBox="0 0 17 17" fill="none" xmlns="http://www.w3.org/2000/svg">
<g id="photo">
<path id="Vector" d="M10.5 5.79818H10.5067M2.5 11.1315L5.83333 7.79814C6.452 7.20281 7.21467 7.20281 7.83333 7.79814L11.1667 11.1315M9.83333 9.79814L10.5 9.13148C11.1187 8.53614 11.8813 8.53614 12.5 9.13148L14.5 11.1315M2.5 4.46484C2.5 3.93441 2.71071 3.4257 3.08579 3.05063C3.46086 2.67556 3.96957 2.46484 4.5 2.46484H12.5C13.0304 2.46484 13.5391 2.67556 13.9142 3.05063C14.2893 3.4257 14.5 3.93441 14.5 4.46484V12.4648C14.5 12.9953 14.2893 13.504 13.9142 13.8791C13.5391 14.2541 13.0304 14.4648 12.5 14.4648H4.5C3.96957 14.4648 3.46086 14.2541 3.08579 13.8791C2.71071 13.504 2.5 12.9953 2.5 12.4648V4.46484Z" stroke="#001742" stroke-linecap="round" stroke-linejoin="round"/>
</g>
</svg>
