<svg width="17" height="17" viewBox="0 0 17 17" fill="none" xmlns="http://www.w3.org/2000/svg">
<g id="scan">
<path id="Vector" d="M3.16602 5.13086V4.46419C3.16602 4.11057 3.30649 3.77143 3.55654 3.52138C3.80659 3.27134 4.14573 3.13086 4.49935 3.13086H5.83268M3.16602 11.7975V12.4642C3.16602 12.8178 3.30649 13.157 3.55654 13.407C3.80659 13.6571 4.14573 13.7975 4.49935 13.7975H5.83268M11.166 3.13086H12.4993C12.853 3.13086 13.1921 3.27134 13.4422 3.52138C13.6922 3.77143 13.8327 4.11057 13.8327 4.46419V5.13086M11.166 13.7975H12.4993C12.853 13.7975 13.1921 13.6571 13.4422 13.407C13.6922 13.157 13.8327 12.8178 13.8327 12.4642V11.7975M3.83268 8.46419H13.166" stroke="#9BABC7" stroke-linecap="round" stroke-linejoin="round"/>
</g>
</svg>
