<svg width="17" height="16" viewBox="0 0 17 16" fill="none" xmlns="http://www.w3.org/2000/svg">
<g id="scan">
<path id="Vector" d="M3.16602 4.66699V4.00033C3.16602 3.6467 3.30649 3.30756 3.55654 3.05752C3.80659 2.80747 4.14573 2.66699 4.49935 2.66699H5.83268M3.16602 11.3337V12.0003C3.16602 12.3539 3.30649 12.6931 3.55654 12.9431C3.80659 13.1932 4.14573 13.3337 4.49935 13.3337H5.83268M11.166 2.66699H12.4993C12.853 2.66699 13.1921 2.80747 13.4422 3.05752C13.6922 3.30756 13.8327 3.6467 13.8327 4.00033V4.66699M11.166 13.3337H12.4993C12.853 13.3337 13.1921 13.1932 13.4422 12.9431C13.6922 12.6931 13.8327 12.3539 13.8327 12.0003V11.3337M3.83268 8.00033H13.166" stroke="#001742" stroke-linecap="round" stroke-linejoin="round"/>
</g>
</svg>
