<svg width="17" height="17" viewBox="0 0 17 17" fill="none" xmlns="http://www.w3.org/2000/svg">
<path d="M2.33569 6.93119H10.6835M5.58207 3.68481V12.0326M2.33569 4.61235C2.33569 4.36635 2.43342 4.13043 2.60736 3.95648C2.78131 3.78254 3.01723 3.68481 3.26323 3.68481H9.75598C10.002 3.68481 10.2379 3.78254 10.4119 3.95648C10.5858 4.13043 10.6835 4.36635 10.6835 4.61235V11.1051C10.6835 11.3511 10.5858 11.587 10.4119 11.761C10.2379 11.9349 10.002 12.0326 9.75598 12.0326H3.26323C3.01723 12.0326 2.78131 11.9349 2.60736 11.761C2.43342 11.587 2.33569 11.3511 2.33569 11.1051V4.61235Z" stroke="#4E5971" stroke-width="0.8" stroke-linecap="round" stroke-linejoin="round"/>
<g clip-path="url(#clip0_654_22348)">
<rect width="11.1304" height="11.1304" transform="translate(5.81372 4.37988)" fill="white"/>
<path d="M7.20508 9.01762H15.5529M10.4515 5.77124V14.1191M7.20508 6.69878C7.20508 6.45278 7.3028 6.21686 7.47675 6.04291C7.65069 5.86896 7.88662 5.77124 8.13261 5.77124H14.6254C14.8714 5.77124 15.1073 5.86896 15.2812 6.04291C15.4552 6.21686 15.5529 6.45278 15.5529 6.69878V13.1915C15.5529 13.4375 15.4552 13.6735 15.2812 13.8474C15.1073 14.0213 14.8714 14.1191 14.6254 14.1191H8.13261C7.88662 14.1191 7.65069 14.0213 7.47675 13.8474C7.3028 13.6735 7.20508 13.4375 7.20508 13.1915V6.69878Z" stroke="#4E5971" stroke-width="0.8" stroke-linecap="round" stroke-linejoin="round"/>
</g>
<defs>
<clipPath id="clip0_654_22348">
<rect width="9.73913" height="9.73913" fill="white" transform="translate(6.50928 5.07556)"/>
</clipPath>
</defs>
</svg>
