<svg width="16" height="20" viewBox="0 0 16 20" fill="none" xmlns="http://www.w3.org/2000/svg">
<path id="Vector" d="M8.82126 7.80688C8.95876 7.39438 9.54126 7.39438 9.67876 7.80688L10.485 10.2281C10.6625 10.7604 10.9615 11.244 11.3583 11.6406C11.7551 12.0372 12.2389 12.336 12.7713 12.5131L15.1913 13.3194C15.6038 13.4569 15.6038 14.0394 15.1913 14.1769L12.77 14.9831C12.2378 15.1606 11.7542 15.4596 11.3575 15.8564C10.9609 16.2533 10.6622 16.737 10.485 17.2694L9.67876 19.6894C9.64911 19.7797 9.5917 19.8584 9.51471 19.9141C9.43771 19.9699 9.34508 19.9999 9.25001 19.9999C9.15494 19.9999 9.0623 19.9699 8.98531 19.9141C8.90832 19.8584 8.8509 19.7797 8.82126 19.6894L8.01501 17.2681C7.83767 16.736 7.53886 16.2525 7.14225 15.8559C6.74564 15.4593 6.26213 15.1605 5.73001 14.9831L3.30876 14.1769C3.21843 14.1472 3.13977 14.0898 3.08401 14.0128C3.02824 13.9358 2.99822 13.8432 2.99822 13.7481C2.99822 13.6531 3.02824 13.5604 3.08401 13.4834C3.13977 13.4064 3.21843 13.349 3.30876 13.3194L5.73001 12.5131C6.26213 12.3358 6.74564 12.037 7.14225 11.6404C7.53886 11.2438 7.83767 10.7602 8.01501 10.2281L8.82126 7.80688ZM3.99251 1.43313C4.01043 1.379 4.04496 1.33189 4.09119 1.2985C4.13741 1.26511 4.19299 1.24714 4.25001 1.24714C4.30703 1.24714 4.3626 1.26511 4.40883 1.2985C4.45505 1.33189 4.48958 1.379 4.50751 1.43313L4.99126 2.88563C5.20751 3.53313 5.71501 4.04063 6.36251 4.25688L7.81501 4.74063C7.86914 4.75855 7.91625 4.79308 7.94963 4.83931C7.98302 4.88553 8.00099 4.94111 8.00099 4.99813C8.00099 5.05515 7.98302 5.11072 7.94963 5.15695C7.91625 5.20318 7.86914 5.2377 7.81501 5.25563L6.36251 5.73938C6.04316 5.84577 5.75299 6.02508 5.51498 6.2631C5.27696 6.50111 5.09765 6.79129 4.99126 7.11063L4.50751 8.56313C4.48958 8.61726 4.45505 8.66437 4.40883 8.69775C4.3626 8.73114 4.30703 8.74911 4.25001 8.74911C4.19299 8.74911 4.13741 8.73114 4.09119 8.69775C4.04496 8.66437 4.01043 8.61726 3.99251 8.56313L3.50876 7.11063C3.40236 6.79129 3.22305 6.50111 2.98504 6.2631C2.74703 6.02508 2.45685 5.84577 2.13751 5.73938L0.685007 5.25563C0.630875 5.2377 0.583769 5.20318 0.550381 5.15695C0.516994 5.11072 0.499023 5.05515 0.499023 4.99813C0.499023 4.94111 0.516994 4.88553 0.550381 4.83931C0.583769 4.79308 0.630875 4.75855 0.685007 4.74063L2.13751 4.25688C2.45685 4.15048 2.74703 3.97117 2.98504 3.73316C3.22305 3.49515 3.40236 3.20497 3.50876 2.88563L3.99251 1.43313ZM12.8288 0.121878C12.8411 0.0862862 12.8642 0.0554232 12.8949 0.0335803C12.9256 0.0117374 12.9623 0 13 0C13.0377 0 13.0744 0.0117374 13.1051 0.0335803C13.1358 0.0554232 13.1589 0.0862862 13.1713 0.121878L13.4938 1.08938C13.6375 1.52188 13.9763 1.86063 14.4088 2.00438L15.3763 2.32688C15.4119 2.33922 15.4427 2.36234 15.4646 2.39303C15.4864 2.42372 15.4981 2.46046 15.4981 2.49813C15.4981 2.5358 15.4864 2.57253 15.4646 2.60322C15.4427 2.63392 15.4119 2.65704 15.3763 2.66938L14.4088 2.99188C14.1956 3.06278 14.0019 3.1824 13.8431 3.34123C13.6843 3.50006 13.5647 3.69374 13.4938 3.90688L13.1713 4.87438C13.1589 4.90997 13.1358 4.94083 13.1051 4.96268C13.0744 4.98452 13.0377 4.99626 13 4.99626C12.9623 4.99626 12.9256 4.98452 12.8949 4.96268C12.8642 4.94083 12.8411 4.90997 12.8288 4.87438L12.5063 3.90688C12.4354 3.69374 12.3157 3.50006 12.1569 3.34123C11.9981 3.1824 11.8044 3.06278 11.5913 2.99188L10.625 2.66938C10.5894 2.65704 10.5586 2.63392 10.5367 2.60322C10.5149 2.57253 10.5031 2.5358 10.5031 2.49813C10.5031 2.46046 10.5149 2.42372 10.5367 2.39303C10.5586 2.36234 10.5894 2.33922 10.625 2.32688L11.5925 2.00438C12.025 1.86063 12.3638 1.52188 12.5075 1.08938L12.8288 0.123128V0.121878Z" fill="url(#paint0_linear_3687_24098)"/>
<defs>
<linearGradient id="paint0_linear_3687_24098" x1="2.90494" y1="2.06896" x2="9.7015" y2="21.7165" gradientUnits="userSpaceOnUse">
<stop stop-color="#004CE6"/>
<stop offset="0.317982" stop-color="#7FA9FC"/>
<stop offset="0.362689" stop-color="#0055FF"/>
<stop offset="0.939165" stop-color="#A5C3FF"/>
</linearGradient>
</defs>
</svg>
