<svg width="17" height="16" viewBox="0 0 17 16" fill="none" xmlns="http://www.w3.org/2000/svg">
<g id="photo">
<path id="Vector" d="M10.5 5.33333H10.5067M2.5 10.6666L5.83333 7.3333C6.452 6.73797 7.21467 6.73797 7.83333 7.3333L11.1667 10.6666M9.83333 9.3333L10.5 8.66663C11.1187 8.0713 11.8813 8.0713 12.5 8.66663L14.5 10.6666M2.5 4C2.5 3.46957 2.71071 2.96086 3.08579 2.58579C3.46086 2.21071 3.96957 2 4.5 2H12.5C13.0304 2 13.5391 2.21071 13.9142 2.58579C14.2893 2.96086 14.5 3.46957 14.5 4V12C14.5 12.5304 14.2893 13.0391 13.9142 13.4142C13.5391 13.7893 13.0304 14 12.5 14H4.5C3.96957 14 3.46086 13.7893 3.08579 13.4142C2.71071 13.0391 2.5 12.5304 2.5 12V4Z" stroke="#9BABC7" stroke-linecap="round" stroke-linejoin="round"/>
</g>
</svg>
