<svg width="12" height="16" viewBox="0 0 12 16" fill="none" xmlns="http://www.w3.org/2000/svg">
<path id="Vector" d="M6.65706 6.2455C6.76706 5.9155 7.23306 5.9155 7.34306 6.2455L7.98806 8.1825C8.13003 8.6083 8.36923 8.99518 8.6867 9.31248C9.00416 9.62978 9.39118 9.86876 9.81706 10.0105L11.7531 10.6555C12.0831 10.7655 12.0831 11.2315 11.7531 11.3415L9.81606 11.9865C9.39025 12.1285 9.00337 12.3677 8.68608 12.6851C8.36878 13.0026 8.1298 13.3896 7.98806 13.8155L7.34306 15.7515C7.31934 15.8238 7.27341 15.8867 7.21181 15.9313C7.15022 15.9759 7.07611 15.9999 7.00006 15.9999C6.924 15.9999 6.84989 15.9759 6.7883 15.9313C6.7267 15.8867 6.68077 15.8238 6.65706 15.7515L6.01206 13.8145C5.87018 13.3888 5.63114 13.002 5.31385 12.6847C4.99656 12.3674 4.60975 12.1284 4.18406 11.9865L2.24705 11.3415C2.17479 11.3178 2.11187 11.2719 2.06726 11.2103C2.02264 11.1487 1.99862 11.0746 1.99862 10.9985C1.99862 10.9225 2.02264 10.8483 2.06726 10.7867C2.11187 10.7251 2.17479 10.6792 2.24705 10.6555L4.18406 10.0105C4.60975 9.86863 4.99656 9.62958 5.31385 9.3123C5.63114 8.99501 5.87018 8.6082 6.01206 8.1825L6.65706 6.2455ZM2.79405 1.1465C2.80839 1.1032 2.83602 1.06551 2.873 1.0388C2.90998 1.01209 2.95444 0.997716 3.00005 0.997716C3.04567 0.997716 3.09013 1.01209 3.12711 1.0388C3.16409 1.06551 3.19171 1.1032 3.20605 1.1465L3.59306 2.3085C3.76605 2.8265 4.17206 3.2325 4.69006 3.4055L5.85206 3.7925C5.89536 3.80684 5.93305 3.83447 5.95976 3.87145C5.98647 3.90843 6.00084 3.95288 6.00084 3.9985C6.00084 4.04412 5.98647 4.08858 5.95976 4.12556C5.93305 4.16254 5.89536 4.19016 5.85206 4.2045L4.69006 4.5915C4.43458 4.67662 4.20244 4.82007 4.01203 5.01048C3.82162 5.20089 3.67817 5.43303 3.59306 5.6885L3.20605 6.8505C3.19171 6.89381 3.16409 6.93149 3.12711 6.9582C3.09013 6.98491 3.04567 6.99929 3.00005 6.99929C2.95444 6.99929 2.90998 6.98491 2.873 6.9582C2.83602 6.93149 2.80839 6.89381 2.79405 6.8505L2.40705 5.6885C2.32194 5.43303 2.17849 5.20089 1.98808 5.01048C1.79767 4.82007 1.56553 4.67662 1.31005 4.5915L0.148055 4.2045C0.104749 4.19016 0.067064 4.16254 0.040354 4.12556C0.0136439 4.08858 -0.000732422 4.04412 -0.000732422 3.9985C-0.000732422 3.95288 0.0136439 3.90843 0.040354 3.87145C0.067064 3.83447 0.104749 3.80684 0.148055 3.7925L1.31005 3.4055C1.56553 3.32039 1.79767 3.17694 1.98808 2.98653C2.17849 2.79612 2.32194 2.56398 2.40705 2.3085L2.79405 1.1465ZM9.86306 0.0975026C9.87293 0.0690289 9.89143 0.0443386 9.91598 0.0268642C9.94053 0.00938991 9.96992 0 10.0001 0C10.0302 0 10.0596 0.00938991 10.0841 0.0268642C10.1087 0.0443386 10.1272 0.0690289 10.1371 0.0975026L10.3951 0.871503C10.5101 1.2175 10.7811 1.4885 11.1271 1.6035L11.9011 1.8615C11.9295 1.87137 11.9542 1.88987 11.9717 1.91443C11.9892 1.93898 11.9986 1.96837 11.9986 1.9985C11.9986 2.02864 11.9892 2.05803 11.9717 2.08258C11.9542 2.10713 11.9295 2.12563 11.9011 2.1355L11.1271 2.3935C10.9565 2.45023 10.8016 2.54592 10.6745 2.67299C10.5475 2.80005 10.4518 2.95499 10.3951 3.1255L10.1371 3.8995C10.1272 3.92798 10.1087 3.95267 10.0841 3.97014C10.0596 3.98762 10.0302 3.99701 10.0001 3.99701C9.96992 3.99701 9.94053 3.98762 9.91598 3.97014C9.89143 3.95267 9.87293 3.92798 9.86306 3.8995L9.60505 3.1255C9.54833 2.95499 9.45264 2.80005 9.32557 2.67299C9.19851 2.54592 9.04357 2.45023 8.87306 2.3935L8.10006 2.1355C8.07158 2.12563 8.04689 2.10713 8.02942 2.08258C8.01194 2.05803 8.00255 2.02864 8.00255 1.9985C8.00255 1.96837 8.01194 1.93898 8.02942 1.91443C8.04689 1.88987 8.07158 1.87137 8.10006 1.8615L8.87405 1.6035C9.22005 1.4885 9.49106 1.2175 9.60606 0.871503L9.86306 0.0985026V0.0975026Z" fill="url(#paint0_linear_724_13240)"/>
<defs>
<linearGradient id="paint0_linear_724_13240" x1="1.924" y1="1.65517" x2="7.36125" y2="17.3732" gradientUnits="userSpaceOnUse">
<stop stop-color="#004CE6"/>
<stop offset="0.317982" stop-color="#7FA9FC"/>
<stop offset="0.362689" stop-color="#0055FF"/>
<stop offset="0.939165" stop-color="#A5C3FF"/>
</linearGradient>
</defs>
</svg>
